<?xml version="1.0" encoding="utf-8"?>
<!-- Generator: Adobe Illustrator 20.1.0, SVG Export Plug-In . SVG Version: 6.00 Build 0)  -->
<svg version="1.1" id="Layer_1" xmlns="http://www.w3.org/2000/svg" xmlns:xlink="http://www.w3.org/1999/xlink" x="0px" y="0px"
	 viewBox="0 0 400 225" style="enable-background:new 0 0 400 225;" xml:space="preserve">
<style type="text/css">
	.st0{fill:none;}
	.st1{fill:#F0F3FC;}
	.st2{fill:#4574FF;}
	.st3{fill:#3D6084;}
	.st4{fill:#2C4277;}
	.st5{fill:#DAEFE0;}
	.st6{fill:#84BE93;}
	.st7{fill:#435E49;}
</style>
<title>column</title>
<g>
	<g id="Layer_2">
		<g id="column">
			<rect y="0" class="st0" width="400" height="225"/>
			<g>
				<g>
					<path class="st1" d="M214.3,177.9L214.3,177.9c-5.5,5.5-14.7,5.5-20.3,0l-72.2-72.2c-5.5-5.5-5.5-14.7,0-20.3l0,0
						c5.5-5.5,14.7-5.5,20.3,0l72.2,72.2C219.9,163.3,219.9,172.4,214.3,177.9z"/>
					<path class="st2" d="M203.4,183.6c-1.1-0.1-2.2-0.2-3.3-0.5l0.8-2.9c0.9,0.2,1.8,0.4,2.7,0.4L203.4,183.6z M206.7,183.4l-0.5-3
						c0.9-0.1,1.8-0.4,2.6-0.7l1.1,2.8C208.8,183,207.8,183.2,206.7,183.4z M197,181.9c-1-0.5-1.9-1.1-2.8-1.8l1.9-2.3
						c0.7,0.6,1.5,1,2.3,1.4L197,181.9z M212.8,181.1l-1.6-2.5c0.7-0.5,1.4-1.1,2.1-1.7l0.1-0.1l2.1,2.1l-0.2,0.2
						C214.6,179.8,213.8,180.5,212.8,181.1z M191.9,177.9l-2.1-2.1l2.1-2.1l2.1,2.1L191.9,177.9z M217.6,176.2l-2.5-1.6
						c0.5-0.8,0.9-1.6,1.2-2.4l2.8,1C218.7,174.3,218.2,175.3,217.6,176.2z M187.7,173.7l-2.1-2.1l2.1-2.1l2.1,2.1L187.7,173.7z
						 M219.8,170.1l-3-0.4c0.1-0.6,0.1-1.2,0.1-1.8c0-0.3,0-0.6,0-0.9l3-0.2c0,0.4,0,0.7,0,1.1C220,168.6,219.9,169.3,219.8,170.1z
						 M183.4,169.5l-2.1-2.1l2.1-2.1l2.1,2.1L183.4,169.5z M179.2,165.2l-2.1-2.1l2.1-2.1l2.1,2.1L179.2,165.2z M216.5,164.3
						c-0.2-0.9-0.6-1.7-1-2.5l2.7-1.4c0.5,1,0.9,2,1.2,3.1L216.5,164.3z M175,161l-2.1-2.1l2.1-2.1l2.1,2.1L175,161z M214.1,159.6
						c-0.2-0.3-0.5-0.6-0.8-0.9l-1.2-1.2l2.1-2.1l1.2,1.2c0.3,0.4,0.7,0.7,1,1.1L214.1,159.6z M170.7,156.7l-2.1-2.1l2.1-2.1
						l2.1,2.1L170.7,156.7z M210,155.4l-2.1-2.1l2.1-2.1l2.1,2.1L210,155.4z M166.5,152.5l-2.1-2.1l2.1-2.1l2.1,2.1L166.5,152.5z
						 M205.7,151.1l-2.1-2.1l2.1-2.1l2.1,2.1L205.7,151.1z M162.2,148.2l-2.1-2.1l2.1-2.1l2.1,2.1L162.2,148.2z M201.5,146.9
						l-2.1-2.1l2.1-2.1l2.1,2.1L201.5,146.9z M158,144l-2.1-2.1l2.1-2.1l2.1,2.1L158,144z M197.2,142.7l-2.1-2.1l2.1-2.1l2.1,2.1
						L197.2,142.7z M153.7,139.8l-2.1-2.1l2.1-2.1l2.1,2.1L153.7,139.8z M193,138.4l-2.1-2.1l2.1-2.1l2.1,2.1L193,138.4z
						 M149.5,135.5l-2.1-2.1l2.1-2.1l2.1,2.1L149.5,135.5z M188.7,134.2l-2.1-2.1l2.1-2.1l2.1,2.1L188.7,134.2z M145.3,131.3
						l-2.1-2.1l2.1-2.1l2.1,2.1L145.3,131.3z M184.5,129.9l-2.1-2.1l2.1-2.1l2.1,2.1L184.5,129.9z M141,127l-2.1-2.1l2.1-2.1
						l2.1,2.1L141,127z M180.3,125.7l-2.1-2.1l2.1-2.1l2.1,2.1L180.3,125.7z M136.8,122.8l-2.1-2.1l2.1-2.1l2.1,2.1L136.8,122.8z
						 M176,121.4l-2.1-2.1l2.1-2.1l2.1,2.1L176,121.4z M132.5,118.5l-2.1-2.1l2.1-2.1l2.1,2.1L132.5,118.5z M171.8,117.2l-2.1-2.1
						l2.1-2.1l2.1,2.1L171.8,117.2z M128.3,114.3l-2.1-2.1l2.1-2.1l2.1,2.1L128.3,114.3z M167.5,113l-2.1-2.1l2.1-2.1l2.1,2.1
						L167.5,113z M124,110.1l-2.1-2.1l2.1-2.1l2.1,2.1L124,110.1z M163.3,108.7l-2.1-2.1l2.1-2.1l2.1,2.1L163.3,108.7z M119.8,105.7
						c-0.7-0.9-1.3-1.8-1.8-2.8l2.7-1.4c0.4,0.8,0.9,1.5,1.5,2.2L119.8,105.7z M159.1,104.5l-2.1-2.1l2.1-2.1l2.1,2.1L159.1,104.5z
						 M154.8,100.2l-2.1-2.1l2.1-2.1l2.1,2.1L154.8,100.2z M116.7,99.8c-0.3-1.1-0.5-2.2-0.5-3.3l3-0.2c0.1,0.9,0.2,1.8,0.4,2.7
						L116.7,99.8z M150.6,96l-2.1-2.1l2.1-2.1l2.1,2.1L150.6,96z M119.3,93.7l-3-0.4c0.2-1.1,0.4-2.2,0.8-3.2l2.8,1
						C119.7,91.9,119.5,92.8,119.3,93.7z M146.3,91.7l-2.1-2.1l2.1-2.1l2.1,2.1L146.3,91.7z M121.2,88.7l-2.5-1.6
						c0.6-0.9,1.3-1.8,2-2.6l2.2,2.1C122.2,87.2,121.7,87.9,121.2,88.7z M142.1,87.5l-1-1c-0.3-0.3-0.7-0.6-1.1-0.9l1.9-2.4
						c0.5,0.4,0.9,0.8,1.3,1.2l1,1L142.1,87.5z M124.9,84.9l-1.6-2.5c0.9-0.6,1.9-1.1,2.9-1.5l1.1,2.8
						C126.5,84,125.7,84.4,124.9,84.9z M137.8,84.1c-0.8-0.4-1.6-0.7-2.5-0.9l0.7-2.9c1.1,0.3,2.1,0.7,3.1,1.1L137.8,84.1z
						 M129.9,83l-0.5-3c0.8-0.1,1.7-0.2,2.5-0.2c0.2,0,0.5,0,0.8,0l-0.1,3c-0.2,0-0.4,0-0.6,0C131.3,82.8,130.6,82.9,129.9,83z"/>
				</g>
			</g>
			<path class="st3" d="M133.1,68.3L133.1,68.3c-3.5,0-6.4-2.9-6.4-6.4l0,0c0-3.5,2.9-6.4,6.4-6.4l0,0c3.5,0,6.4,2.9,6.4,6.4l0,0
				C139.4,65.4,136.6,68.3,133.1,68.3z"/>
			<path class="st3" d="M167.8,68.3L167.8,68.3c-3.5,0-6.4-2.9-6.4-6.4l0,0c0-3.5,2.9-6.4,6.4-6.4l0,0c3.5,0,6.4,2.9,6.4,6.4l0,0
				C174.2,65.4,171.3,68.3,167.8,68.3z"/>
			<path class="st4" d="M133.1,103.1L133.1,103.1c-3.5,0-6.4-2.9-6.4-6.4l0,0c0-3.5,2.9-6.4,6.4-6.4l0,0c3.5,0,6.4,2.9,6.4,6.4l0,0
				C139.4,100.2,136.6,103.1,133.1,103.1z"/>
			<path class="st3" d="M167.8,103.1L167.8,103.1c-3.5,0-6.4-2.9-6.4-6.4l0,0c0-3.5,2.9-6.4,6.4-6.4l0,0c3.5,0,6.4,2.9,6.4,6.4l0,0
				C174.2,100.2,171.3,103.1,167.8,103.1z"/>
			<path class="st3" d="M202.6,68.3L202.6,68.3c-3.5,0-6.4-2.9-6.4-6.4l0,0c0-3.5,2.9-6.4,6.4-6.4l0,0c3.5,0,6.4,2.9,6.4,6.4l0,0
				C208.9,65.4,206.1,68.3,202.6,68.3z"/>
			<path class="st3" d="M202.6,103.1L202.6,103.1c-3.5,0-6.4-2.9-6.4-6.4l0,0c0-3.5,2.9-6.4,6.4-6.4l0,0c3.5,0,6.4,2.9,6.4,6.4l0,0
				C208.9,100.2,206.1,103.1,202.6,103.1z"/>
			<path class="st3" d="M133.1,137.8L133.1,137.8c-3.5,0-6.4-2.9-6.4-6.4l0,0c0-3.5,2.9-6.4,6.4-6.4l0,0c3.5,0,6.4,2.9,6.4,6.4l0,0
				C139.4,134.9,136.6,137.8,133.1,137.8z"/>
			<path class="st4" d="M167.8,137.8L167.8,137.8c-3.5,0-6.4-2.9-6.4-6.4l0,0c0-3.5,2.9-6.4,6.4-6.4l0,0c3.5,0,6.4,2.9,6.4,6.4l0,0
				C174.2,134.9,171.3,137.8,167.8,137.8z"/>
			<path class="st3" d="M133.1,172.6L133.1,172.6c-3.5,0-6.4-2.9-6.4-6.4l0,0c0-3.5,2.9-6.4,6.4-6.4l0,0c3.5,0,6.4,2.9,6.4,6.4l0,0
				C139.4,169.7,136.6,172.6,133.1,172.6z"/>
			<path class="st3" d="M167.8,172.6L167.8,172.6c-3.5,0-6.4-2.9-6.4-6.4l0,0c0-3.5,2.9-6.4,6.4-6.4l0,0c3.5,0,6.4,2.9,6.4,6.4l0,0
				C174.2,169.7,171.3,172.6,167.8,172.6z"/>
			<path class="st3" d="M202.6,137.8L202.6,137.8c-3.5,0-6.4-2.9-6.4-6.4l0,0c0-3.5,2.9-6.4,6.4-6.4l0,0c3.5,0,6.4,2.9,6.4,6.4l0,0
				C208.9,134.9,206.1,137.8,202.6,137.8z"/>
			<path class="st4" d="M202.6,172.6L202.6,172.6c-3.5,0-6.4-2.9-6.4-6.4l0,0c0-3.5,2.9-6.4,6.4-6.4l0,0c3.5,0,6.4,2.9,6.4,6.4l0,0
				C208.9,169.7,206.1,172.6,202.6,172.6z"/>
			<path class="st3" d="M237.3,172.6L237.3,172.6c-3.5,0-6.4-2.9-6.4-6.4l0,0c0-3.5,2.9-6.4,6.4-6.4l0,0c3.5,0,6.4,2.9,6.4,6.4l0,0
				C243.7,169.7,240.8,172.6,237.3,172.6z"/>
			<path class="st3" d="M272.1,68.3L272.1,68.3c-3.5,0-6.4-2.9-6.4-6.4l0,0c0-3.5,2.9-6.4,6.4-6.4l0,0c3.5,0,6.4,2.9,6.4,6.4l0,0
				C278.4,65.4,275.6,68.3,272.1,68.3z"/>
			<path class="st3" d="M272.1,103.1L272.1,103.1c-3.5,0-6.4-2.9-6.4-6.4l0,0c0-3.5,2.9-6.4,6.4-6.4l0,0c3.5,0,6.4,2.9,6.4,6.4l0,0
				C278.4,100.2,275.6,103.1,272.1,103.1z"/>
			<path class="st3" d="M272.1,137.8L272.1,137.8c-3.5,0-6.4-2.9-6.4-6.4l0,0c0-3.5,2.9-6.4,6.4-6.4l0,0c3.5,0,6.4,2.9,6.4,6.4l0,0
				C278.4,134.9,275.6,137.8,272.1,137.8z"/>
			<path class="st3" d="M272.1,172.6L272.1,172.6c-3.5,0-6.4-2.9-6.4-6.4l0,0c0-3.5,2.9-6.4,6.4-6.4l0,0c3.5,0,6.4,2.9,6.4,6.4l0,0
				C278.4,169.7,275.6,172.6,272.1,172.6z"/>
			<g>
				<g>
					<path class="st5" d="M237.3,150.1L237.3,150.1c-8,0-14.5-6.5-14.5-14.5V59.8c0-8,6.5-14.5,14.5-14.5l0,0
						c8,0,14.5,6.5,14.5,14.5v75.8C251.8,143.6,245.3,150.1,237.3,150.1z"/>
					<path class="st6" d="M237.3,151.6c-8.8,0-16-7.2-16-16V59.8c0-8.8,7.2-16,16-16s16,7.2,16,16v75.8
						C253.3,144.4,246.1,151.6,237.3,151.6z M237.3,46.8c-7.2,0-13,5.8-13,13v75.8c0,7.2,5.8,13,13,13s13-5.8,13-13V59.8
						C250.3,52.6,244.5,46.8,237.3,46.8z"/>
				</g>
			</g>
			<path class="st7" d="M237.3,68.3L237.3,68.3c-3.5,0-6.4-2.9-6.4-6.4l0,0c0-3.5,2.9-6.4,6.4-6.4l0,0c3.5,0,6.4,2.9,6.4,6.4l0,0
				C243.7,65.4,240.8,68.3,237.3,68.3z"/>
			<path class="st7" d="M237.3,103.1L237.3,103.1c-3.5,0-6.4-2.9-6.4-6.4l0,0c0-3.5,2.9-6.4,6.4-6.4l0,0c3.5,0,6.4,2.9,6.4,6.4l0,0
				C243.7,100.2,240.8,103.1,237.3,103.1z"/>
			<path class="st7" d="M237.3,137.8L237.3,137.8c-3.5,0-6.4-2.9-6.4-6.4l0,0c0-3.5,2.9-6.4,6.4-6.4l0,0c3.5,0,6.4,2.9,6.4,6.4l0,0
				C243.7,134.9,240.8,137.8,237.3,137.8z"/>
		</g>
	</g>
</g>
</svg>
